<?xml version="1.0" encoding="UTF-8" standalone="no"?>
<!-- Generator: Adobe Illustrator 19.0.0, SVG Export Plug-In . SVG Version: 6.00 Build 0)  -->

<svg
   version="1.1"
   id="Layer_1"
   x="0px"
   y="0px"
   viewBox="0 0 512 512"
   style="enable-background:new 0 0 512 512;"
   xml:space="preserve"
   sodipodi:docname="delete-svgrepo-com.svg"
   inkscape:version="1.2.1 (9c6d41e, 2022-07-14)"
   xmlns:inkscape="http://www.inkscape.org/namespaces/inkscape"
   xmlns:sodipodi="http://sodipodi.sourceforge.net/DTD/sodipodi-0.dtd"
   xmlns="http://www.w3.org/2000/svg"
   xmlns:svg="http://www.w3.org/2000/svg"><defs
   id="defs256" /><sodipodi:namedview
   id="namedview254"
   pagecolor="#ffffff"
   bordercolor="#000000"
   borderopacity="0.25"
   inkscape:showpageshadow="2"
   inkscape:pageopacity="0.0"
   inkscape:pagecheckerboard="0"
   inkscape:deskcolor="#d1d1d1"
   showgrid="false"
   inkscape:zoom="1.6171875"
   inkscape:cx="256"
   inkscape:cy="262.18357"
   inkscape:window-width="1920"
   inkscape:window-height="1031"
   inkscape:window-x="0"
   inkscape:window-y="25"
   inkscape:window-maximized="1"
   inkscape:current-layer="Layer_1" />
<rect
   x="104.923"
   y="191.732"
   style="fill:none"
   width="302.163"
   height="304.524"
   id="rect211" />
<g
   id="g221"
   inkscape:label="g221">
	<path
   style="fill:#713f12;fill-opacity:1"
   d="M180.066,413.377c-8.69,0-15.738-7.047-15.738-15.738V296.918c0-8.69,7.047-15.738,15.738-15.738   s15.738,7.047,15.738,15.738v100.721C195.803,406.329,188.756,413.377,180.066,413.377z"
   id="path213" />
	<path
   style="fill:#713f12;fill-opacity:1"
   d="M256,413.377c-8.69,0-15.738-7.047-15.738-15.738V296.918c0-8.69,7.047-15.738,15.738-15.738   c8.69,0,15.738,7.047,15.738,15.738v100.721C271.738,406.329,264.69,413.377,256,413.377z"
   id="path215" />
	<path
   style="fill:#713f12;fill-opacity:1"
   d="M331.934,413.377c-8.69,0-15.738-7.047-15.738-15.738V296.918c0-8.69,7.047-15.738,15.738-15.738   s15.738,7.047,15.738,15.738v100.721C347.672,406.329,340.625,413.377,331.934,413.377z"
   id="path217" />
	<path
   style="fill:#713f12;fill-opacity:1"
   d="M395.935,73.706c-8.69,0-15.738,7.047-15.738,15.738s7.047,15.738,15.738,15.738   c18.295,0,33.18,14.885,33.18,33.18v37.64H407.08H104.92H82.886v-37.64c0-18.295,14.885-33.18,33.18-33.18h163.541   c8.69,0,15.738-7.047,15.738-15.738s-7.047-15.738-15.738-15.738h-92.852v-42.23h138.492v57.968c0,8.69,7.047,15.738,15.738,15.738   s15.738-7.047,15.738-15.738V15.738c0-8.69-7.047-15.738-15.738-15.738H171.017c-8.69,0-15.738,7.047-15.738,15.738v57.968h-39.214   c-35.651,0-64.655,29.005-64.655,64.655v53.377c0,8.69,7.047,15.738,15.738,15.738h22.034v288.786   c0,8.69,7.047,15.738,15.738,15.738h302.16c8.69,0,15.738-7.047,15.738-15.738V207.476h22.034c8.69,0,15.738-7.047,15.738-15.738   v-53.377C460.59,102.71,431.585,73.706,395.935,73.706z M391.342,480.525H120.658V207.476h270.685V480.525z"
   id="path219" />
</g>
<g
   id="g223">
</g>
<g
   id="g225">
</g>
<g
   id="g227">
</g>
<g
   id="g229">
</g>
<g
   id="g231">
</g>
<g
   id="g233">
</g>
<g
   id="g235">
</g>
<g
   id="g237">
</g>
<g
   id="g239">
</g>
<g
   id="g241">
</g>
<g
   id="g243">
</g>
<g
   id="g245">
</g>
<g
   id="g247">
</g>
<g
   id="g249">
</g>
<g
   id="g251"
   inkscape:label="g251">
</g>
</svg>
